<?xml version="1.0" encoding="UTF-8" standalone="no"?>
<!-- Created with Inkscape (http://www.inkscape.org/) -->

<svg
   xmlns:dc="http://purl.org/dc/elements/1.1/"
   xmlns:cc="http://creativecommons.org/ns#"
   xmlns:rdf="http://www.w3.org/1999/02/22-rdf-syntax-ns#"
   xmlns:svg="http://www.w3.org/2000/svg"
   xmlns="http://www.w3.org/2000/svg"
   xmlns:sodipodi="http://sodipodi.sourceforge.net/DTD/sodipodi-0.dtd"
   xmlns:inkscape="http://www.inkscape.org/namespaces/inkscape"
   width="142.28693mm"
   height="142.29106mm"
   viewBox="0 0 142.28693 142.29106"
   version="1.1"
   id="svg8"
   inkscape:version="0.92.4 (5da689c313, 2019-01-14)"
   sodipodi:docname="colorwheel.svg">
  <defs
     id="defs2" />
  <sodipodi:namedview
     id="base"
     pagecolor="#ffffff"
     bordercolor="#666666"
     borderopacity="1.0"
     inkscape:pageopacity="0.0"
     inkscape:pageshadow="2"
     inkscape:zoom="0.9899495"
     inkscape:cx="150.47433"
     inkscape:cy="331.48067"
     inkscape:document-units="mm"
     inkscape:current-layer="layer1"
     showgrid="false"
     inkscape:snap-intersection-paths="true"
     inkscape:snap-grids="true"
     inkscape:snap-bbox="true"
     inkscape:bbox-paths="true"
     inkscape:bbox-nodes="false"
     inkscape:snap-bbox-edge-midpoints="true"
     fit-margin-top="0"
     fit-margin-left="0"
     fit-margin-right="0"
     fit-margin-bottom="0"
     inkscape:window-width="1920"
     inkscape:window-height="1017"
     inkscape:window-x="1912"
     inkscape:window-y="-8"
     inkscape:window-maximized="1" />
  <metadata
     id="metadata5">
    <rdf:RDF>
      <cc:Work
         rdf:about="">
        <dc:format>image/svg+xml</dc:format>
        <dc:type
           rdf:resource="http://purl.org/dc/dcmitype/StillImage" />
        <dc:title></dc:title>
      </cc:Work>
    </rdf:RDF>
  </metadata>
  <g
     inkscape:label="ColorWheel"
     inkscape:groupmode="layer"
     id="layer1"
     transform="translate(-50.592906,-46.656572)">
    <g
       id="g114">
      <path
         inkscape:connector-curvature="0"
         id="path10"
         d="m 98.622532,46.656582 a 74.568189,74.568189 0 0 0 -48.029626,48.27974 23.179056,23.179056 0 0 1 5.036386,-0.583943 23.179056,23.179056 0 0 1 23.179463,23.178951 23.179056,23.179056 0 0 1 -23.179463,23.17998 23.179056,23.179056 0 0 1 -4.964039,-0.55397 74.568189,74.568189 0 0 0 49.851737,48.7903 23.179056,23.179056 0 0 1 -0.30231,-3.65094 23.179056,23.179056 0 0 1 23.17895,-23.17998 23.179056,23.179056 0 0 1 23.17946,23.17998 23.179056,23.179056 0 0 1 -0.13797,2.46135 74.568189,74.568189 0 0 0 46.44471,-48.62856 23.179056,23.179056 0 0 1 -0.14521,0.005 A 23.179056,23.179056 0 0 1 169.55515,115.9557 23.179056,23.179056 0 0 1 191.88299,92.806728 74.568189,74.568189 0 0 0 144.82591,46.744426 23.179056,23.179056 0 0 1 121.73637,68.136917 23.179056,23.179056 0 0 1 98.622532,46.656574 Z"
         style="fill:#000000;fill-opacity:1;stroke-width:0.26458332" />
    </g>
    <circle
       style="fill:#008000;fill-opacity:1;stroke-width:0.18143584"
       id="path42-1-9-0"
       cx="121.72422"
       cy="56.949558"
       r="10.292986" />
    <circle
       style="fill:#008000;fill-opacity:1;stroke-width:0.18143585"
       id="path42-1-9-0-9"
       cx="180.63837"
       cy="115.97061"
       r="10.292987" />
    <circle
       style="fill:#008000;fill-opacity:1;stroke-width:0.18143587"
       id="path42-1-9-0-9-1"
       cx="123.47605"
       cy="173.33849"
       r="10.292988" />
    <circle
       style="fill:#008000;fill-opacity:1;stroke-width:0.18143587"
       id="path42-1-9-0-9-8"
       cx="67.730896"
       cy="117.54683"
       r="10.292988" />
  </g>
</svg>
